<svg width="67" height="67" viewBox="0 0 67 67" fill="none" xmlns="http://www.w3.org/2000/svg">
<g filter="url(#filter0_d_237_471)">
<path d="M56.7365 0H10.2635C6.8042 0 4 2.80419 4 6.26346V52.7365C4 56.1958 6.8042 59 10.2635 59H56.7365C60.1958 59 63 56.1958 63 52.7365V6.26346C63 2.80419 60.1958 0 56.7365 0ZM29.6132 45.733H23.0453L10.8197 13.267H23.1465L32.4421 38.1385L29.6132 45.733ZM45.6055 45.733H39.0377L26.812 13.267H39.1389L48.4344 38.1385L45.6055 45.733ZM50.0443 29.7221L43.8481 13.267H56.1749L56.1796 13.2801L50.0443 29.7221Z" fill="white"/>
</g>
<defs>
<filter id="filter0_d_237_471" x="0" y="0" width="67" height="67" filterUnits="userSpaceOnUse" color-interpolation-filters="sRGB">
<feFlood flood-opacity="0" result="BackgroundImageFix"/>
<feColorMatrix in="SourceAlpha" type="matrix" values="0 0 0 0 0 0 0 0 0 0 0 0 0 0 0 0 0 0 127 0" result="hardAlpha"/>
<feOffset dy="4"/>
<feGaussianBlur stdDeviation="2"/>
<feComposite in2="hardAlpha" operator="out"/>
<feColorMatrix type="matrix" values="0 0 0 0 0 0 0 0 0 0 0 0 0 0 0 0 0 0 0.25 0"/>
<feBlend mode="normal" in2="BackgroundImageFix" result="effect1_dropShadow_237_471"/>
<feBlend mode="normal" in="SourceGraphic" in2="effect1_dropShadow_237_471" result="shape"/>
</filter>
</defs>
</svg>
